<svg xmlns="http://www.w3.org/2000/svg" width="42" height="42" viewBox="0 0 42 42">
  <metadata><?xpacket begin="﻿" id="W5M0MpCehiHzreSzNTczkc9d"?>
<x:xmpmeta xmlns:x="adobe:ns:meta/" x:xmptk="Adobe XMP Core 5.6-c138 79.159824, 2016/09/14-01:09:01        ">
   <rdf:RDF xmlns:rdf="http://www.w3.org/1999/02/22-rdf-syntax-ns#">
      <rdf:Description rdf:about=""/>
   </rdf:RDF>
</x:xmpmeta>
                                                                                                    
                                                                                                    
                                                                                                    
                                                                                                    
                                                                                                    
                                                                                                    
                                                                                                    
                                                                                                    
                                                                                                    
                                                                                                    
                                                                                                    
                                                                                                    
                                                                                                    
                                                                                                    
                                                                                                    
                                                                                                    
                                                                                                    
                                                                                                    
                                                                                                    
                                                                                                    
                           
<?xpacket end="w"?></metadata>
<defs>
    <style>
      .cls-1 {
        fill: #18c33a;
        fill-rule: evenodd;
      }
    </style>
  </defs>
  <path id="Forma_1" data-name="Forma 1" class="cls-1" d="M40.77,9.433a1.312,1.312,0,0,0-1.023-.568L14.308,7.757a1.33,1.33,0,0,0-.113,2.657l23.717,1.033-4.663,14.7H12.5L8.747,5.521a1.327,1.327,0,0,0-.813-1L1.793,2.085a1.313,1.313,0,0,0-1.706.751A1.335,1.335,0,0,0,.83,4.561L6.29,6.729l3.815,20.994a1.32,1.32,0,0,0,1.294,1.09h0.633l-1.445,4.057a1.117,1.117,0,0,0,.135,1.013,1.093,1.093,0,0,0,.9.471h1.014a3.948,3.948,0,1,0,5.868,0h8.606a3.947,3.947,0,1,0,5.868,0h1.233a1.108,1.108,0,0,0,0-2.216H13.18l1.184-3.325H34.208a1.316,1.316,0,0,0,1.252-.924L40.943,10.6A1.338,1.338,0,0,0,40.77,9.433Zm-25.2,29.353a1.773,1.773,0,1,1,1.754-1.773A1.766,1.766,0,0,1,15.567,38.786Zm14.474,0A1.773,1.773,0,1,1,31.8,37.013,1.766,1.766,0,0,1,30.041,38.786Z"/>
</svg>
