<svg xmlns="http://www.w3.org/2000/svg" width="42" height="42" viewBox="0 0 42 42">
  <metadata><?xpacket begin="﻿" id="W5M0MpCehiHzreSzNTczkc9d"?>
<x:xmpmeta xmlns:x="adobe:ns:meta/" x:xmptk="Adobe XMP Core 5.6-c138 79.159824, 2016/09/14-01:09:01        ">
   <rdf:RDF xmlns:rdf="http://www.w3.org/1999/02/22-rdf-syntax-ns#">
      <rdf:Description rdf:about=""/>
   </rdf:RDF>
</x:xmpmeta>
                                                                                                    
                                                                                                    
                                                                                                    
                                                                                                    
                                                                                                    
                                                                                                    
                                                                                                    
                                                                                                    
                                                                                                    
                                                                                                    
                                                                                                    
                                                                                                    
                                                                                                    
                                                                                                    
                                                                                                    
                                                                                                    
                                                                                                    
                                                                                                    
                                                                                                    
                                                                                                    
                           
<?xpacket end="w"?></metadata>
<defs>
    <style>
      .cls-1 {
        fill: #fff;
        fill-rule: evenodd;
      }
    </style>
  </defs>
  <path id="Forma_1" data-name="Forma 1" class="cls-1" d="M40.364,12.515A20.092,20.092,0,0,0,29.447,1.637,20.141,20.141,0,0,0,21.466,0a19.933,19.933,0,0,0-7.958,1.637A20.156,20.156,0,0,0,2.614,12.515a20.5,20.5,0,0,0,0,15.947,20.2,20.2,0,0,0,10.895,10.9A19.934,19.934,0,0,0,21.466,41a20.147,20.147,0,0,0,7.98-1.637,20.136,20.136,0,0,0,10.917-10.9A20.243,20.243,0,0,0,40.364,12.515ZM37.091,29.539A17.992,17.992,0,0,1,30.5,36.111a17.649,17.649,0,0,1-9.034,2.422A17.351,17.351,0,0,1,14.473,37.1a18.329,18.329,0,0,1-5.739-3.835A18.23,18.23,0,0,1,4.9,27.5a17.667,17.667,0,0,1-1.412-7.02,17.64,17.64,0,0,1,2.4-9.016A18,18,0,0,1,12.456,4.89a17.512,17.512,0,0,1,9.011-2.422A17.649,17.649,0,0,1,30.5,4.89a18.046,18.046,0,0,1,6.59,6.572,17.538,17.538,0,0,1,2.421,9.016A17.708,17.708,0,0,1,37.091,29.539ZM22.767,20.3V8.68a1.293,1.293,0,0,0-1.3-1.256A1.264,1.264,0,0,0,20.233,8.68v11.8a1.023,1.023,0,0,1,.045.179,1.173,1.173,0,0,0,.336,1.01l6.7,6.706a1.274,1.274,0,0,0,1.726,0,1.21,1.21,0,0,0,0-1.749Z"/>
</svg>
