<svg xmlns="http://www.w3.org/2000/svg" width="43" height="42" viewBox="0 0 43 42">
  <metadata><?xpacket begin="﻿" id="W5M0MpCehiHzreSzNTczkc9d"?>
<x:xmpmeta xmlns:x="adobe:ns:meta/" x:xmptk="Adobe XMP Core 5.6-c138 79.159824, 2016/09/14-01:09:01        ">
   <rdf:RDF xmlns:rdf="http://www.w3.org/1999/02/22-rdf-syntax-ns#">
      <rdf:Description rdf:about=""/>
   </rdf:RDF>
</x:xmpmeta>
                                                                                                    
                                                                                                    
                                                                                                    
                                                                                                    
                                                                                                    
                                                                                                    
                                                                                                    
                                                                                                    
                                                                                                    
                                                                                                    
                                                                                                    
                                                                                                    
                                                                                                    
                                                                                                    
                                                                                                    
                                                                                                    
                                                                                                    
                                                                                                    
                                                                                                    
                                                                                                    
                           
<?xpacket end="w"?></metadata>
<defs>
    <style>
      .cls-1 {
        fill: #18c33a;
        fill-rule: evenodd;
      }
    </style>
  </defs>
  <path id="Forma_1" data-name="Forma 1" class="cls-1" d="M20.154,30.192a1.4,1.4,0,0,1,0,1.969,1.362,1.362,0,0,1-1.944,0L8.725,22.552a1.621,1.621,0,0,1,0-2.108l9.485-9.608a1.362,1.362,0,0,1,1.944,0,1.4,1.4,0,0,1,0,1.969l-7.208,7.3H42.623a1.393,1.393,0,0,1,0,2.785H12.946ZM5.5,2H33a5.536,5.536,0,0,1,5.5,5.57v5.571h-2.75V7.573A2.768,2.768,0,0,0,33,4.788H5.5A2.768,2.768,0,0,0,2.752,7.573V35.425A2.768,2.768,0,0,0,5.5,38.211H33a2.767,2.767,0,0,0,2.75-2.786v-5.57H38.5v5.57A5.536,5.536,0,0,1,33,41H5.5A5.536,5.536,0,0,1,0,35.425V7.573A5.536,5.536,0,0,1,5.5,2Z"/>
</svg>
