<svg xmlns="http://www.w3.org/2000/svg" width="112" height="145" viewBox="0 0 112 145">
  <metadata><?xpacket begin="﻿" id="W5M0MpCehiHzreSzNTczkc9d"?>
<x:xmpmeta xmlns:x="adobe:ns:meta/" x:xmptk="Adobe XMP Core 5.6-c138 79.159824, 2016/09/14-01:09:01        ">
   <rdf:RDF xmlns:rdf="http://www.w3.org/1999/02/22-rdf-syntax-ns#">
      <rdf:Description rdf:about=""/>
   </rdf:RDF>
</x:xmpmeta>
                                                                                                    
                                                                                                    
                                                                                                    
                                                                                                    
                                                                                                    
                                                                                                    
                                                                                                    
                                                                                                    
                                                                                                    
                                                                                                    
                                                                                                    
                                                                                                    
                                                                                                    
                                                                                                    
                                                                                                    
                                                                                                    
                                                                                                    
                                                                                                    
                                                                                                    
                                                                                                    
                           
<?xpacket end="w"?></metadata>
<defs>
    <style>
      .cls-1 {
        fill: #9a9a9a;
      }

      .cls-1, .cls-2 {
        fill-rule: evenodd;
      }

      .cls-2 {
        fill: #fff;
      }
    </style>
  </defs>
  <path id="Фигура_1" data-name="Фигура 1" class="cls-1" d="M64.119,29.117H59.634V21.409H52.907v7.849c-1.324.613-2.657,1.3-3.223,2.663-0.605,1.451-.28,4.119-0.28,6.027V50.981H40.575V71.864c-4.257.027-9.61,0.413-13.173-.42A6.883,6.883,0,0,1,26,69.482V5.571c0-2.438-.091-4.413,1.682-5.046C28.766-.317,33.7.105,35.67,0.105H56.131c2.819,0,6.281-.433,7.428,1.261,1.059,1.565.561,5.512,0.561,7.989V29.117ZM30.485,6.552v9.53c1.752,0.585,4.819.152,6.867,0.14V6.552H30.485Zm11.352,0v9.671H48.7V6.552H41.836Zm11.071,0v9.671h6.727V6.552H52.907ZM30.485,21.409v9.671h6.867V21.409H30.485Zm11.352,0v9.671H48.7V21.409H41.836ZM72.808,71.864V60.231c-1.759-.586-5.705-0.151-7.848-0.14V71.864c-2.976.052-11.5,0.665-12.192-1.261-0.351-.569-0.14-2.108-0.14-2.943V32.9a5.618,5.618,0,0,1,1.4-1.121c1.679-.621,4.745-0.14,6.727-0.14H77.012c2.541,0,7.016-.627,7.708,1.261,0.336,0.543.14,2,.14,2.8V61.353c0,3.042.395,6.751-.14,9.53C82.251,72.439,76.773,71.876,72.808,71.864Zm-16.4-36.58V40.61H62.3V35.284H56.411Zm9.67,0V40.61h5.746V35.284H66.081Zm9.249,0V40.61h5.746V35.284H75.33ZM30.485,46.636h6.867V37.106c-1.715-.572-4.718-0.152-6.727-0.14C30.006,38.83,30.474,44.253,30.485,46.636Zm11.352,0H48.7V37.106c-1.715-.572-4.718-0.152-6.727-0.14C41.357,38.83,41.826,44.253,41.836,46.636Zm14.715-3.083c-0.45,1.343-.152,3.713-0.14,5.326,1.454,0.487,4.015.152,5.746,0.14,0.45-1.343.152-3.713,0.14-5.326h-0.14v-0.14H56.551Zm9.53,0v5.466h5.746V43.553H66.081Zm9.249,0v5.466h5.746V43.553H75.33ZM30.485,60.792h6.867V51.121H30.625C30.006,52.986,30.474,58.408,30.485,60.792Zm25.926-8.409v5.326H62.3V52.383H56.411Zm9.67,0v5.326h5.746V52.383H66.081Zm9.249,0v5.326h5.746V52.383H75.33ZM56.551,60.231c-0.45,1.343-.152,3.713-0.14,5.326,1.454,0.487,4.015.152,5.746,0.14,0.45-1.343.152-3.713,0.14-5.326h-0.14v-0.14H56.551Zm18.779,0.14v5.466h5.746V60.372H75.33Z"/>
  <path id="Фигура_1_копия" data-name="Фигура 1 копия" class="cls-2" d="M64.119,102.117H59.634V94.409H52.907v7.848c-1.324.614-2.657,1.3-3.223,2.663-0.605,1.451-.28,4.12-0.28,6.027v13.034H40.575v20.883c-4.257.027-9.61,0.413-13.173-.42a6.891,6.891,0,0,1-1.4-1.962V78.571c0-2.438-.091-4.412,1.682-5.046,1.084-.843,6.018-0.421,7.988-0.421H56.131c2.819,0,6.281-.433,7.428,1.261,1.059,1.565.561,5.512,0.561,7.989v19.762ZM30.485,79.552v9.531c1.752,0.585,4.819.152,6.867,0.14V79.552H30.485Zm11.352,0v9.671H48.7V79.552H41.836Zm11.071,0v9.671h6.727V79.552H52.907ZM30.485,94.409v9.67h6.867v-9.67H30.485Zm11.352,0v9.67H48.7v-9.67H41.836Zm30.971,50.455V133.231c-1.759-.585-5.705-0.151-7.848-0.14v11.773c-2.976.052-11.5,0.665-12.192-1.261-0.351-.569-0.14-2.108-0.14-2.943V105.9a5.626,5.626,0,0,1,1.4-1.121c1.679-.621,4.745-0.14,6.727-0.14H77.012c2.541,0,7.016-.627,7.708,1.261,0.336,0.543.14,2,.14,2.8v25.649c0,3.042.395,6.75-.14,9.53C82.251,145.439,76.773,144.876,72.808,144.864Zm-16.4-36.58v5.326H62.3v-5.326H56.411Zm9.67,0v5.326h5.746v-5.326H66.081Zm9.249,0v5.326h5.746v-5.326H75.33ZM30.485,119.636h6.867v-9.53c-1.715-.573-4.718-0.152-6.727-0.14C30.006,111.83,30.474,117.253,30.485,119.636Zm11.352,0H48.7v-9.53c-1.715-.573-4.718-0.152-6.727-0.14C41.357,111.83,41.826,117.253,41.836,119.636Zm14.715-3.083c-0.45,1.343-.152,3.713-0.14,5.326,1.454,0.487,4.015.152,5.746,0.14,0.45-1.343.152-3.713,0.14-5.326h-0.14v-0.14H56.551Zm9.53,0v5.466h5.746v-5.466H66.081Zm9.249,0v5.466h5.746v-5.466H75.33ZM30.485,133.792h6.867v-9.671H30.625C30.006,125.986,30.474,131.408,30.485,133.792Zm25.926-8.409v5.326H62.3v-5.326H56.411Zm9.67,0v5.326h5.746v-5.326H66.081Zm9.249,0v5.326h5.746v-5.326H75.33Zm-18.779,7.848c-0.45,1.343-.152,3.713-0.14,5.326,1.454,0.487,4.015.152,5.746,0.14,0.45-1.342.152-3.713,0.14-5.325h-0.14v-0.141H56.551Zm18.779,0.141v5.466h5.746v-5.466H75.33Z"/>
</svg>
