<svg xmlns="http://www.w3.org/2000/svg" width="43" height="42" viewBox="0 0 43 42">
  <metadata><?xpacket begin="﻿" id="W5M0MpCehiHzreSzNTczkc9d"?>
<x:xmpmeta xmlns:x="adobe:ns:meta/" x:xmptk="Adobe XMP Core 5.6-c138 79.159824, 2016/09/14-01:09:01        ">
   <rdf:RDF xmlns:rdf="http://www.w3.org/1999/02/22-rdf-syntax-ns#">
      <rdf:Description rdf:about=""/>
   </rdf:RDF>
</x:xmpmeta>
                                                                                                    
                                                                                                    
                                                                                                    
                                                                                                    
                                                                                                    
                                                                                                    
                                                                                                    
                                                                                                    
                                                                                                    
                                                                                                    
                                                                                                    
                                                                                                    
                                                                                                    
                                                                                                    
                                                                                                    
                                                                                                    
                                                                                                    
                                                                                                    
                                                                                                    
                                                                                                    
                           
<?xpacket end="w"?></metadata>
<defs>
    <style>
      .cls-1 {
        fill: #18c33a;
        fill-rule: evenodd;
      }
    </style>
  </defs>
  <path id="Forma_1" data-name="Forma 1" class="cls-1" d="M23.854,42H19.331c-0.68,0-.918,0-3.236-5.722L14.3,35.554C9.425,37.76,8.847,37.76,8.655,37.76H8.281l-0.318-.273L4.757,34.363c-0.487-.484-0.656-0.653,1.852-6.3l-0.73-1.722c-5.89-2.1-5.89-2.346-5.89-3.039V18.883c0-.692,0-0.911,5.87-3.172l0.73-1.725C3.936,8.423,4.119,8.25,4.642,7.759L8.09,4.392l0.428-.014c0.521,0,2.452.7,5.744,2.087l1.786-.722C18.2,0,18.461,0,19.139,0h4.522c0.678,0,.915,0,3.235,5.725l1.793,0.72c4.872-2.2,5.457-2.2,5.652-2.2h0.37L35.03,4.509l3.205,3.12c0.487,0.49.654,0.658-1.854,6.308l0.732,1.731c5.9,2.094,5.9,2.337,5.9,3.031v4.412c0,0.676,0,.914-5.878,3.177l-0.725,1.727c2.639,5.538,2.465,5.712,1.972,6.207l-3.474,3.389-0.431.012c-0.518,0-2.444-.7-5.733-2.09l-1.8.723C24.79,42,24.546,42,23.854,42ZM19.8,40.177h3.566c0.41-.831,1.295-3.035,2-4.934l0.143-.378,3.248-1.307,0.349,0.148c1.936,0.823,4.224,1.733,5.115,2.014l2.507-2.443c-0.318-.879-1.284-3.031-2.154-4.845L34.4,28.064l1.344-3.2,0.366-.14c1.956-.75,4.221-1.676,5.067-2.1V19.2c-0.857-.4-3.113-1.256-5.057-1.943L35.74,17.12l-1.352-3.2,0.161-.361c0.832-1.871,1.758-4.078,2.054-4.967L34.09,6.145c-0.811.282-3.082,1.252-5,2.123l-0.357.163-3.247-1.3-0.145-.36c-0.768-1.909-1.722-4.122-2.152-4.942H19.627c-0.412.829-1.293,3.034-2,4.931l-0.14.376L14.247,8.443,13.9,8.294c-1.94-.821-4.232-1.731-5.127-2.011l-2.5,2.444c0.314,0.878,1.282,3.028,2.149,4.842L8.6,13.94l-1.35,3.195-0.363.14c-1.952.749-4.214,1.674-5.06,2.095v3.436c0.856,0.4,3.11,1.26,5.053,1.95l0.378,0.137L8.607,28.08l-0.161.36C7.613,30.31,6.688,32.513,6.391,33.4l2.518,2.456c0.809-.284,3.077-1.255,5-2.126l0.359-.164L17.5,34.879l0.145,0.36C18.42,37.148,19.371,39.357,19.8,40.177Zm1.7-11.826A7.351,7.351,0,1,1,29.013,21,7.449,7.449,0,0,1,21.5,28.351Zm0-12.872A5.525,5.525,0,1,0,27.182,21,5.613,5.613,0,0,0,21.5,15.479Z"/>
</svg>
