<svg xmlns="http://www.w3.org/2000/svg" width="42" height="42" viewBox="0 0 42 42">
  <metadata><?xpacket begin="﻿" id="W5M0MpCehiHzreSzNTczkc9d"?>
<x:xmpmeta xmlns:x="adobe:ns:meta/" x:xmptk="Adobe XMP Core 5.6-c138 79.159824, 2016/09/14-01:09:01        ">
   <rdf:RDF xmlns:rdf="http://www.w3.org/1999/02/22-rdf-syntax-ns#">
      <rdf:Description rdf:about=""/>
   </rdf:RDF>
</x:xmpmeta>
                                                                                                    
                                                                                                    
                                                                                                    
                                                                                                    
                                                                                                    
                                                                                                    
                                                                                                    
                                                                                                    
                                                                                                    
                                                                                                    
                                                                                                    
                                                                                                    
                                                                                                    
                                                                                                    
                                                                                                    
                                                                                                    
                                                                                                    
                                                                                                    
                                                                                                    
                                                                                                    
                           
<?xpacket end="w"?></metadata>
<defs>
    <style>
      .cls-1 {
        fill: #18c33a;
        fill-rule: evenodd;
      }
    </style>
  </defs>
  <path id="Forma_1" data-name="Forma 1" class="cls-1" d="M38.018,3h-14.1a1.016,1.016,0,0,0-.72.308L2.308,24.12a0.992,0.992,0,0,0,0,1.439l14.1,14.131a1,1,0,0,0,1.441,0l20.84-20.812A1.014,1.014,0,0,0,39,18.159V4.028A0.958,0.958,0,0,0,38.018,3ZM36.989,17.7L17.178,37.533,4.469,24.891,24.331,5.056H36.989V17.7Zm-7.2-9.609A4.111,4.111,0,1,0,33.9,12.2,4.126,4.126,0,0,0,29.785,8.087Zm1.441,5.6a2.149,2.149,0,0,1-2.933,0A2.073,2.073,0,1,1,31.226,13.689Z"/>
</svg>
