<svg xmlns="http://www.w3.org/2000/svg" width="112" height="145" viewBox="0 0 112 145">
  <metadata><?xpacket begin="﻿" id="W5M0MpCehiHzreSzNTczkc9d"?>
<x:xmpmeta xmlns:x="adobe:ns:meta/" x:xmptk="Adobe XMP Core 5.6-c138 79.159824, 2016/09/14-01:09:01        ">
   <rdf:RDF xmlns:rdf="http://www.w3.org/1999/02/22-rdf-syntax-ns#">
      <rdf:Description rdf:about=""/>
   </rdf:RDF>
</x:xmpmeta>
                                                                                                    
                                                                                                    
                                                                                                    
                                                                                                    
                                                                                                    
                                                                                                    
                                                                                                    
                                                                                                    
                                                                                                    
                                                                                                    
                                                                                                    
                                                                                                    
                                                                                                    
                                                                                                    
                                                                                                    
                                                                                                    
                                                                                                    
                                                                                                    
                                                                                                    
                                                                                                    
                           
<?xpacket end="w"?></metadata>
<defs>
    <style>
      .cls-1 {
        fill: #9a9a9a;
      }

      .cls-1, .cls-2 {
        fill-rule: evenodd;
      }

      .cls-2 {
        fill: #fff;
      }
    </style>
  </defs>
  <path id="Фигура_1" data-name="Фигура 1" class="cls-1" d="M46.4,0.014C62.9-.349,71.27,5.94,75.766,17.26c2.517,6.338,1.277,17.333-3.115,20.784-1.8,1.173-3.921.394-6.229,1.327-3.188,1.287-7.586,5.68-8.9,8.844-1.5,3.607.519,11.45-.445,13.267C56.122,64.526,53.329,66.42,51.738,69h-0.89c-1.26-3.909-5.292-6.653-7.564-9.729C36.174,49.648,19.1,28.863,29.045,12.838a31.97,31.97,0,0,1,9.789-9.729C40.937,1.82,44.748,1.773,46.4.014Zm3.115,12.824a4.8,4.8,0,0,1-3.115.884c-2.059,2.557-5.339,3.253-5.785,7.518-1.857,2.488-.3,6.38,0,9.287,2.573,2.047,3.273,5.307,7.564,5.749,5.314,4.34,14.775-2.98,15.129-7.518,1.857-2.488.3-6.38,0-9.287C58.863,15.974,58.143,12.779,49.513,12.838ZM70.871,42.909c10.084-.245,15.386,5.4,15.129,15.478-1.646,1-1.219,2.772-2.225,4.422-2.088,3.426-7.214,5.34-12.9,5.307-1.222-1.426-2.746-1.186-4.45-2.211-4.883-2.938-7.127-12.138-3.115-17.689C65.031,45.831,69.4,45.284,70.871,42.909Zm8.9,7.075a2.279,2.279,0,0,1-1.335.442c-0.919,2.212-4.462,5.708-7.119,6.191a6.879,6.879,0,0,0-4.45-3.538,1.607,1.607,0,0,1-.89.442v2.211c2.247,2.177,3.4,4.988,7.564,5.307,2.047-3.863,7.86-5.8,8.454-10.613H81.55V49.985h-1.78Z"/>
  <path id="Фигура_1_копия" data-name="Фигура 1 копия" class="cls-2" d="M46.4,76.014C62.9,75.651,71.27,81.94,75.766,93.26c2.517,6.338,1.277,17.333-3.115,20.785-1.8,1.173-3.921.394-6.229,1.326-3.188,1.287-7.586,5.68-8.9,8.845-1.5,3.607.519,11.449-.445,13.266-0.955,3.044-3.748,4.938-5.339,7.518h-0.89c-1.26-3.909-5.292-6.653-7.564-9.729-7.11-9.623-24.188-30.408-14.239-46.433a31.971,31.971,0,0,1,9.789-9.729C40.937,77.82,44.748,77.773,46.4,76.014Zm3.115,12.824a4.8,4.8,0,0,1-3.115.884c-2.059,2.557-5.339,3.253-5.785,7.518-1.857,2.488-.3,6.38,0,9.287,2.573,2.046,3.273,5.306,7.564,5.749,5.314,4.339,14.775-2.98,15.129-7.518,1.857-2.488.3-6.379,0-9.286C58.863,91.974,58.143,88.779,49.513,88.838Zm21.358,30.071c10.084-.245,15.386,5.4,15.129,15.478-1.646,1-1.219,2.772-2.225,4.422-2.088,3.426-7.214,5.34-12.9,5.307-1.222-1.427-2.746-1.186-4.45-2.212-4.883-2.937-7.127-12.138-3.115-17.688C65.031,121.831,69.4,121.284,70.871,118.909Zm8.9,7.076a2.287,2.287,0,0,1-1.335.442c-0.919,2.212-4.462,5.708-7.119,6.191a6.881,6.881,0,0,0-4.45-3.538,1.6,1.6,0,0,1-.89.442v2.211c2.247,2.178,3.4,4.988,7.564,5.307,2.047-3.862,7.86-5.8,8.454-10.613H81.55v-0.442h-1.78Z"/>
</svg>
