<svg xmlns="http://www.w3.org/2000/svg" width="112" height="133" viewBox="0 0 112 133">
  <metadata><?xpacket begin="﻿" id="W5M0MpCehiHzreSzNTczkc9d"?>
<x:xmpmeta xmlns:x="adobe:ns:meta/" x:xmptk="Adobe XMP Core 5.6-c138 79.159824, 2016/09/14-01:09:01        ">
   <rdf:RDF xmlns:rdf="http://www.w3.org/1999/02/22-rdf-syntax-ns#">
      <rdf:Description rdf:about=""/>
   </rdf:RDF>
</x:xmpmeta>
                                                                                                    
                                                                                                    
                                                                                                    
                                                                                                    
                                                                                                    
                                                                                                    
                                                                                                    
                                                                                                    
                                                                                                    
                                                                                                    
                                                                                                    
                                                                                                    
                                                                                                    
                                                                                                    
                                                                                                    
                                                                                                    
                                                                                                    
                                                                                                    
                                                                                                    
                                                                                                    
                           
<?xpacket end="w"?></metadata>
<defs>
    <style>
      .cls-1 {
        fill: #9a9a9a;
      }

      .cls-1, .cls-2 {
        fill-rule: evenodd;
      }

      .cls-2 {
        fill: #fff;
      }
    </style>
  </defs>
  <path id="Фигура_1" data-name="Фигура 1" class="cls-1" d="M79.152,8.059c3.248-.025,7.692-0.619,10.524.218s4.694,3.792,6.578,5.663c3.545,3.521,7.2,6.933,10.744,10.455,1.255,1.247,3,2.406,3.947,3.92,0.973,1.561.9,3.956,0.877,6.534h-93.4V26.137H18.2V25.919c-3.623-.066-9.354-1.5-12.717-2.4C3.74,23.062,1.3,23.378,0,22.434a58.336,58.336,0,0,0,11.84-1.089c3.4-.738,6.951-0.19,10.086-0.871,2.605-.566,8.008.31,9.867-0.871a60.089,60.089,0,0,1-10.086-1.525c-4.125-.963-8.386-0.834-12.278-1.742C7.2,15.816,1.693,15.995.219,15.029l31.573-3.267c-3.961-.7-8.438-0.868-12.279-1.742L16.006,9.8A81.186,81.186,0,0,0,.877,7.841V7.405a34.53,34.53,0,0,0,7.455-.871C11.75,5.771,15.176,6.1,18.418,5.445,18.4-1.289,25.91.218,32.45,0.218H63.585c3.531,0,10.346-.7,12.936.436,1.17,0.515,1.588,1.753,2.412,2.614Q79.043,5.663,79.152,8.059Zm5.7,5.227C83.6,15.7,84.391,24.134,84.415,27.661c1.367,0.45,3.744.218,5.481,0.218h12.717a3.272,3.272,0,0,0,.439-0.871h-0.22c-0.549-1.5-2.643-2.626-3.727-3.7-3.424-3.4-7.209-6.52-10.525-10.019H84.853ZM18.418,37.245h93.4c0.04,2.563.592,10.325-.439,11.762-0.942,3.033-4.69,2.918-8.77,2.831V51.62h-0.219c-0.882-7.714-10.815-13.549-18.637-8.712a14.087,14.087,0,0,0-5.262,6.316c-0.338.82-.21,1.743-0.658,2.4-1.273.787-5.02,0.218-6.8,0.218H53.5a0.621,0.621,0,0,0-.219-0.218c-0.385-6.518-8.659-12.59-16.225-9.8a12.248,12.248,0,0,0-8.113,10.019,37.759,37.759,0,0,1-8.551-.653c-0.584-.866-1.655-1.515-1.973-2.614V37.245Zm21.707,6.97c12.634-.274,13.494,15.706,3.07,18.513-6.327,1.7-13.124-5.007-11.182-11.544a10.128,10.128,0,0,1,5.482-6.316C38.314,44.526,39.407,44.656,40.124,44.214Zm49.114,0c12.523-.245,13.416,15.719,3.07,18.513-5.823,1.573-13.225-4.572-11.4-11.108a10.2,10.2,0,0,1,5.7-6.752C87.428,44.527,88.521,44.656,89.238,44.214ZM41,48.788c-0.764.483-1.9,0.38-2.631,0.871-0.811.546-1.092,1.693-1.754,2.4-0.19,2.834.533,5.639,3.508,5.881,2.552,1.715,6.579-2.456,5.7-5.445C45.1,50.034,43.472,49.593,41,48.788Zm49.114,0a5.386,5.386,0,0,1-1.973.436c-0.535.64-1.52,1.059-1.973,1.742-1.467,2.208-.31,5.844,1.754,6.534a4.131,4.131,0,0,0,4.166.218c1.52-.475,1.689-1.618,2.631-2.614a14.45,14.45,0,0,0-.219-3.7c-0.6-.458-0.922-1.332-1.535-1.742A12.65,12.65,0,0,0,90.115,48.788Z"/>
  <path id="Фигура_1_копия" data-name="Фигура 1 копия" class="cls-2" d="M79.152,78.059c3.248-.025,7.692-0.619,10.524.218s4.694,3.792,6.578,5.663c3.545,3.521,7.2,6.933,10.744,10.455,1.255,1.247,3,2.406,3.947,3.921,0.973,1.561.9,3.956,0.877,6.534h-93.4V96.137H18.2V95.919c-3.623-.066-9.354-1.5-12.717-2.4C3.74,93.062,1.3,93.378,0,92.434a58.336,58.336,0,0,0,11.84-1.089c3.4-.738,6.951-0.19,10.086-0.871,2.605-.566,8.008.31,9.867-0.871a60.089,60.089,0,0,1-10.086-1.525c-4.125-.963-8.386-0.834-12.278-1.742C7.2,85.816,1.693,85.995.219,85.029l31.573-3.267c-3.961-.7-8.438-0.868-12.279-1.742L16.006,79.8A81.183,81.183,0,0,0,.877,77.841V77.405a34.535,34.535,0,0,0,7.455-.871c3.418-.763,6.844-0.431,10.086-1.089C18.4,68.711,25.91,70.218,32.45,70.218H63.585c3.531,0,10.346-.7,12.936.436,1.17,0.515,1.588,1.753,2.412,2.614Q79.043,75.663,79.152,78.059Zm5.7,5.227C83.6,85.7,84.391,94.134,84.415,97.661c1.367,0.45,3.744.218,5.481,0.218h12.717a3.272,3.272,0,0,0,.439-0.871h-0.22c-0.549-1.5-2.643-2.626-3.727-3.7C95.681,89.9,91.9,86.786,88.58,83.286H84.853ZM18.418,107.245h93.4c0.04,2.563.592,10.324-.439,11.761-0.942,3.034-4.69,2.918-8.77,2.832V121.62h-0.219c-0.882-7.715-10.815-13.55-18.637-8.712a14.081,14.081,0,0,0-5.262,6.316c-0.338.82-.21,1.743-0.658,2.4-1.273.787-5.02,0.218-6.8,0.218H53.5a0.61,0.61,0,0,0-.219-0.218c-0.385-6.518-8.659-12.59-16.225-9.8a12.25,12.25,0,0,0-8.113,10.02,37.791,37.791,0,0,1-8.551-.654c-0.584-.866-1.655-1.515-1.973-2.614V107.245Zm21.707,6.969c12.634-.274,13.494,15.706,3.07,18.514-6.327,1.7-13.124-5.007-11.182-11.544a10.128,10.128,0,0,1,5.482-6.316C38.314,114.526,39.407,114.656,40.124,114.214Zm49.114,0c12.523-.244,13.416,15.719,3.07,18.514-5.823,1.572-13.225-4.572-11.4-11.108a10.2,10.2,0,0,1,5.7-6.752C87.428,114.527,88.521,114.656,89.238,114.214ZM41,118.788c-0.764.484-1.9,0.38-2.631,0.871-0.811.547-1.092,1.693-1.754,2.4-0.19,2.834.533,5.64,3.508,5.881,2.552,1.716,6.579-2.455,5.7-5.445C45.1,120.034,43.472,119.593,41,118.788Zm49.114,0a5.394,5.394,0,0,1-1.973.436c-0.535.64-1.52,1.059-1.973,1.742-1.467,2.208-.31,5.844,1.754,6.534a4.13,4.13,0,0,0,4.166.218c1.52-.474,1.689-1.618,2.631-2.613a14.452,14.452,0,0,0-.219-3.7c-0.6-.458-0.922-1.332-1.535-1.743A12.7,12.7,0,0,0,90.115,118.788Z"/>
</svg>
