<svg xmlns="http://www.w3.org/2000/svg" width="44" height="42" viewBox="0 0 44 42">
  <metadata><?xpacket begin="﻿" id="W5M0MpCehiHzreSzNTczkc9d"?>
<x:xmpmeta xmlns:x="adobe:ns:meta/" x:xmptk="Adobe XMP Core 5.6-c138 79.159824, 2016/09/14-01:09:01        ">
   <rdf:RDF xmlns:rdf="http://www.w3.org/1999/02/22-rdf-syntax-ns#">
      <rdf:Description rdf:about=""/>
   </rdf:RDF>
</x:xmpmeta>
                                                                                                    
                                                                                                    
                                                                                                    
                                                                                                    
                                                                                                    
                                                                                                    
                                                                                                    
                                                                                                    
                                                                                                    
                                                                                                    
                                                                                                    
                                                                                                    
                                                                                                    
                                                                                                    
                                                                                                    
                                                                                                    
                                                                                                    
                                                                                                    
                                                                                                    
                                                                                                    
                           
<?xpacket end="w"?></metadata>
<defs>
    <style>
      .cls-1 {
        fill: #18c33a;
        fill-rule: evenodd;
      }
    </style>
  </defs>
  <path id="Forma_1" data-name="Forma 1" class="cls-1" d="M42.9,15.206a1.168,1.168,0,0,0-1.191-.865H27.432L22.758,0.864A1.184,1.184,0,0,0,21.519,0a1.211,1.211,0,0,0-1.262.865L15.584,14.341H1.306a1.192,1.192,0,0,0-1.239.865,1.264,1.264,0,0,0,.421,1.448L11.939,25.6l-4.16,13.71a1.239,1.239,0,0,0,.468,1.448,1.349,1.349,0,0,0,1.542,0l11.731-8.175,11.708,8.175a1.31,1.31,0,0,0,.771.234,1.267,1.267,0,0,0,1.285-1.285,1.816,1.816,0,0,0-.093-0.537L31.077,25.6l11.45-8.946A1.18,1.18,0,0,0,42.9,15.206ZM29.243,23.943a1.418,1.418,0,0,0-.471,1.455L32.3,37.015,22.265,30.109a1.249,1.249,0,0,0-1.514,0L10.719,37.015,14.245,25.4a1.417,1.417,0,0,0-.472-1.455L4.014,16.371H16.232a1.239,1.239,0,0,0,1.267-.912L21.521,3.989l4,11.469a1.247,1.247,0,0,0,1.291.912H39Z"/>
</svg>
