<svg xmlns="http://www.w3.org/2000/svg" width="39" height="49" viewBox="0 0 39 49">
  <metadata><?xpacket begin="﻿" id="W5M0MpCehiHzreSzNTczkc9d"?>
<x:xmpmeta xmlns:x="adobe:ns:meta/" x:xmptk="Adobe XMP Core 5.6-c138 79.159824, 2016/09/14-01:09:01        ">
   <rdf:RDF xmlns:rdf="http://www.w3.org/1999/02/22-rdf-syntax-ns#">
      <rdf:Description rdf:about=""/>
   </rdf:RDF>
</x:xmpmeta>
                                                                                                    
                                                                                                    
                                                                                                    
                                                                                                    
                                                                                                    
                                                                                                    
                                                                                                    
                                                                                                    
                                                                                                    
                                                                                                    
                                                                                                    
                                                                                                    
                                                                                                    
                                                                                                    
                                                                                                    
                                                                                                    
                                                                                                    
                                                                                                    
                                                                                                    
                                                                                                    
                           
<?xpacket end="w"?></metadata>
<defs>
    <style>
      .cls-1 {
        fill: #454545;
        fill-rule: evenodd;
      }
    </style>
  </defs>
  <path id="Password_icon" data-name="Password icon" class="cls-1" d="M33.375,49H5.625A4.647,4.647,0,0,1,1,44.333V21a4.646,4.646,0,0,1,4.625-4.666H28.751V14a9.334,9.334,0,0,0-2.709-6.6,9.191,9.191,0,0,0-12.424-.6,9.337,9.337,0,0,0-3.179,5.319l-4.532-.934A14.022,14.022,0,0,1,10.673,3.2,13.756,13.756,0,0,1,19.5,0,13.938,13.938,0,0,1,33.375,14v2.333A4.646,4.646,0,0,1,38,21V44.333A4.645,4.645,0,0,1,33.375,49ZM19.5,28a4.667,4.667,0,1,0,4.625,4.667A4.645,4.645,0,0,0,19.5,28Z"/>
</svg>
