<svg xmlns="http://www.w3.org/2000/svg" width="94" height="404" viewBox="0 0 94 404">
  <metadata><?xpacket begin="﻿" id="W5M0MpCehiHzreSzNTczkc9d"?>
<x:xmpmeta xmlns:x="adobe:ns:meta/" x:xmptk="Adobe XMP Core 5.6-c138 79.159824, 2016/09/14-01:09:01        ">
   <rdf:RDF xmlns:rdf="http://www.w3.org/1999/02/22-rdf-syntax-ns#">
      <rdf:Description rdf:about=""/>
   </rdf:RDF>
</x:xmpmeta>
                                                                                                    
                                                                                                    
                                                                                                    
                                                                                                    
                                                                                                    
                                                                                                    
                                                                                                    
                                                                                                    
                                                                                                    
                                                                                                    
                                                                                                    
                                                                                                    
                                                                                                    
                                                                                                    
                                                                                                    
                                                                                                    
                                                                                                    
                                                                                                    
                                                                                                    
                                                                                                    
                           
<?xpacket end="w"?></metadata>
<defs>
    <style>
      .cls-1 {
        fill: #18c33a;
      }

      .cls-1, .cls-2 {
        fill-rule: evenodd;
      }

      .cls-2 {
        fill: #fff;
      }
    </style>
  </defs>
  <path id="Forma_1" data-name="Forma 1" class="cls-1" d="M23,28.875c6.514,0,11.813-6.478,11.813-14.437S29.512,0,23,0a10.791,10.791,0,0,0-8.45,4.338,16.161,16.161,0,0,0-3.363,10.1C11.187,22.4,16.486,28.875,23,28.875ZM23,2.626c5.065,0,9.188,5.3,9.188,11.812S28.065,26.251,23,26.251s-9.188-5.3-9.189-11.812S17.934,2.626,23,2.626ZM32.188,26.25a1.313,1.313,0,0,0,0,2.625,9.2,9.2,0,0,1,9.188,9.187,1.315,1.315,0,0,1-1.312,1.313H5.938a1.315,1.315,0,0,1-1.312-1.313,9.2,9.2,0,0,1,9.187-9.187,1.313,1.313,0,0,0,0-2.625A11.825,11.825,0,0,0,2,38.062,3.942,3.942,0,0,0,5.938,42H40.063A3.942,3.942,0,0,0,44,38.062,11.826,11.826,0,0,0,32.188,26.25Z"/>
  <path id="Forma_1-2" data-name="Forma 1" class="cls-1" d="M20.5,48A20.5,20.5,0,1,0,41,68.5,20.523,20.523,0,0,0,20.5,48Zm0,38.312A17.811,17.811,0,1,1,38.311,68.5,17.831,17.831,0,0,1,20.5,86.311Zm7.422-24.523L17.351,72.359l-4.273-4.272a1.344,1.344,0,0,0-1.9,1.9L16.4,75.211a1.345,1.345,0,0,0,1.9,0l0,0L29.822,63.69A1.344,1.344,0,1,0,27.922,61.789Z"/>
  <path id="Forma_1-3" data-name="Forma 1" class="cls-1" d="M38.018,94h-14.1a1.016,1.016,0,0,0-.72.308L2.308,115.12a0.992,0.992,0,0,0,0,1.439l14.1,14.132a1,1,0,0,0,1.441,0l20.84-20.812a1.016,1.016,0,0,0,.309-0.72V95.028A0.958,0.958,0,0,0,38.018,94Zm-1.029,14.7L17.178,128.532,4.469,115.891,24.331,96.056H36.989V108.7Zm-7.2-9.61A4.111,4.111,0,1,0,33.9,103.2,4.126,4.126,0,0,0,29.785,99.087Zm1.441,5.6a2.151,2.151,0,0,1-2.933,0A2.073,2.073,0,1,1,31.226,104.689Z"/>
  <path id="Forma_1-4" data-name="Forma 1" class="cls-1" d="M40.77,143.433a1.313,1.313,0,0,0-1.023-.568l-25.439-1.108a1.33,1.33,0,0,0-.113,2.657l23.717,1.033-4.663,14.7H12.5L8.747,139.521a1.326,1.326,0,0,0-.813-1l-6.141-2.438a1.312,1.312,0,0,0-1.706.751,1.336,1.336,0,0,0,.743,1.725l5.46,2.168,3.815,20.993a1.32,1.32,0,0,0,1.294,1.09h0.633l-1.445,4.057a1.117,1.117,0,0,0,.135,1.013,1.094,1.094,0,0,0,.9.471h1.014a3.948,3.948,0,1,0,5.868,0h8.606a3.947,3.947,0,1,0,5.868,0h1.233a1.109,1.109,0,0,0,0-2.217H13.18l1.184-3.324H34.208a1.316,1.316,0,0,0,1.252-.924L40.943,144.6A1.338,1.338,0,0,0,40.77,143.433Zm-25.2,29.353a1.773,1.773,0,1,1,1.754-1.773A1.765,1.765,0,0,1,15.567,172.786Zm14.474,0a1.773,1.773,0,1,1,1.755-1.773A1.765,1.765,0,0,1,30.041,172.786Z"/>
  <path id="Forma_1-5" data-name="Forma 1" class="cls-1" d="M42.9,287.206a1.168,1.168,0,0,0-1.191-.865H27.432l-4.673-13.477A1.184,1.184,0,0,0,21.519,272a1.211,1.211,0,0,0-1.262.864l-4.674,13.477H1.306a1.192,1.192,0,0,0-1.239.865,1.265,1.265,0,0,0,.421,1.448L11.939,297.6l-4.16,13.71a1.239,1.239,0,0,0,.468,1.448,1.348,1.348,0,0,0,1.542,0l11.731-8.174,11.708,8.174a1.307,1.307,0,0,0,.771.234,1.266,1.266,0,0,0,1.285-1.284,1.821,1.821,0,0,0-.093-0.538L31.077,297.6l11.45-8.945A1.181,1.181,0,0,0,42.9,287.206Zm-13.658,8.737a1.419,1.419,0,0,0-.471,1.455L32.3,309.015l-10.032-6.906a1.249,1.249,0,0,0-1.514,0l-10.032,6.906L14.245,297.4a1.418,1.418,0,0,0-.472-1.455l-9.759-7.572H16.232a1.239,1.239,0,0,0,1.267-.913l4.022-11.469,4,11.469a1.246,1.246,0,0,0,1.291.913H39Z"/>
  <path id="Forma_1-6" data-name="Forma 1" class="cls-1" d="M20.154,393.192a1.4,1.4,0,0,1,0,1.969,1.362,1.362,0,0,1-1.944,0l-9.485-9.609a1.622,1.622,0,0,1,0-2.108l9.485-9.608a1.362,1.362,0,0,1,1.944,0,1.4,1.4,0,0,1,0,1.969l-7.208,7.3H42.623a1.393,1.393,0,0,1,0,2.785H12.946ZM5.5,365H33a5.536,5.536,0,0,1,5.5,5.57v5.571h-2.75v-5.571A2.768,2.768,0,0,0,33,367.788H5.5a2.768,2.768,0,0,0-2.749,2.785v27.852A2.768,2.768,0,0,0,5.5,401.211H33a2.767,2.767,0,0,0,2.75-2.786v-5.57H38.5v5.57A5.536,5.536,0,0,1,33,404H5.5A5.536,5.536,0,0,1,0,398.425V370.573A5.536,5.536,0,0,1,5.5,365Z"/>
  <path id="Forma_1-7" data-name="Forma 1" class="cls-1" d="M39.364,192.515a20.1,20.1,0,0,0-10.917-10.878A20.154,20.154,0,0,0,20.466,180a19.933,19.933,0,0,0-7.958,1.637A20.158,20.158,0,0,0,1.614,192.515a20.5,20.5,0,0,0,0,15.947,20.2,20.2,0,0,0,10.895,10.9A19.934,19.934,0,0,0,20.466,221a20.152,20.152,0,0,0,7.98-1.637A20.565,20.565,0,0,0,41,200.477,19.956,19.956,0,0,0,39.364,192.515Zm-3.273,17.024a18,18,0,0,1-6.591,6.572,17.65,17.65,0,0,1-9.034,2.422,17.345,17.345,0,0,1-6.994-1.436A17.62,17.62,0,0,1,3.9,207.5a18.15,18.15,0,0,1,.987-16.037,18,18,0,0,1,6.568-6.571,17.511,17.511,0,0,1,9.011-2.423A17.65,17.65,0,0,1,29.5,184.89a18.038,18.038,0,0,1,6.59,6.571A18.087,18.087,0,0,1,36.091,209.539ZM21.767,200.3V188.68a1.293,1.293,0,0,0-1.3-1.256,1.264,1.264,0,0,0-1.233,1.256v11.8a1.047,1.047,0,0,1,.045.18,1.174,1.174,0,0,0,.336,1.01l6.7,6.706a1.276,1.276,0,0,0,1.726,0,1.211,1.211,0,0,0,0-1.75Z"/>
  <path id="Forma_1-8" data-name="Forma 1" class="cls-1" d="M23.854,360H19.331c-0.68,0-.918,0-3.236-5.722l-1.791-.725c-4.879,2.206-5.457,2.206-5.65,2.206H8.281l-0.318-.273-3.206-3.125c-0.487-.484-0.656-0.653,1.852-6.3l-0.73-1.722c-5.89-2.1-5.89-2.346-5.89-3.039v-4.417c0-.692,0-0.911,5.87-3.173l0.73-1.725c-2.653-5.562-2.471-5.735-1.947-6.226l3.447-3.367,0.428-.014c0.521,0,2.452.7,5.744,2.088l1.786-.723C18.2,318,18.461,318,19.139,318h4.522c0.678,0,.915,0,3.235,5.725l1.793,0.72c4.872-2.2,5.457-2.2,5.652-2.2h0.37l0.319,0.268,3.205,3.12c0.487,0.49.654,0.658-1.854,6.309l0.732,1.73c5.9,2.094,5.9,2.338,5.9,3.032v4.412c0,0.676,0,.913-5.878,3.177l-0.725,1.726c2.639,5.538,2.465,5.712,1.972,6.208l-3.474,3.389-0.431.012c-0.518,0-2.444-.7-5.733-2.09l-1.8.723C24.79,360,24.546,360,23.854,360ZM19.8,358.177h3.566c0.41-.831,1.295-3.035,2-4.933l0.143-.378,3.248-1.307,0.349,0.148c1.936,0.823,4.224,1.733,5.115,2.014l2.507-2.443c-0.318-.879-1.284-3.031-2.154-4.845l-0.176-.369,1.344-3.2,0.366-.14c1.956-.75,4.221-1.676,5.067-2.1V337.2c-0.857-.4-3.113-1.256-5.057-1.943l-0.381-.136-1.352-3.2,0.161-.36c0.832-1.871,1.758-4.078,2.054-4.967l-2.513-2.448c-0.811.282-3.082,1.252-5,2.123l-0.357.163-3.247-1.3-0.145-.36c-0.768-1.909-1.722-4.122-2.152-4.942H19.627c-0.412.829-1.293,3.034-2,4.931l-0.14.376-3.239,1.311-0.349-.149c-1.94-.821-4.232-1.73-5.127-2.01l-2.5,2.444c0.314,0.877,1.282,3.027,2.149,4.842L8.6,331.94l-1.35,3.194-0.363.14c-1.952.749-4.214,1.674-5.06,2.1v3.436c0.856,0.4,3.11,1.26,5.053,1.95l0.378,0.136,1.353,3.189-0.161.36c-0.833,1.869-1.757,4.073-2.055,4.961l2.518,2.455c0.809-.284,3.077-1.255,5-2.126l0.359-.163,3.241,1.312,0.145,0.36C18.42,355.148,19.371,357.357,19.8,358.177Zm1.7-11.826A7.351,7.351,0,1,1,29.013,339,7.449,7.449,0,0,1,21.5,346.351Zm0-12.873A5.526,5.526,0,1,0,27.182,339,5.614,5.614,0,0,0,21.5,333.478Z"/>
  <path id="Forma_1-9" data-name="Forma 1" class="cls-1" d="M35.143,231.417H28.636v-2.645A2.764,2.764,0,0,0,25.888,226H16.112a2.764,2.764,0,0,0-2.749,2.772v2.645H6.857A1.867,1.867,0,0,0,5,233.29v3.433A1.868,1.868,0,0,0,6.857,238.6H7.936v25.78a2.614,2.614,0,0,0,2.6,2.623H31.464a2.614,2.614,0,0,0,2.6-2.623V238.6h1.079A1.867,1.867,0,0,0,37,236.724V233.29A1.867,1.867,0,0,0,35.143,231.417Zm-19.551-2.645a0.529,0.529,0,0,1,.52-0.524h9.775a0.529,0.529,0,0,1,.52.524v2.645H15.592v-2.645Zm16.243,35.605a0.378,0.378,0,0,1-.372.375H10.536a0.378,0.378,0,0,1-.371-0.375V238.6H31.836v25.78Zm2.936-28.028H7.229v-2.684H34.771v2.684h0ZM14.478,261.574a1.119,1.119,0,0,0,1.114-1.124V243.305a1.114,1.114,0,1,0-2.229,0V260.45A1.119,1.119,0,0,0,14.478,261.574Zm6.522,0a1.119,1.119,0,0,0,1.114-1.124V243.305a1.114,1.114,0,1,0-2.229,0V260.45A1.119,1.119,0,0,0,21,261.574Zm6.522,0a1.119,1.119,0,0,0,1.114-1.124V243.305a1.114,1.114,0,1,0-2.229,0V260.45A1.119,1.119,0,0,0,27.522,261.574Z"/>
  <path id="Forma_1_копия" data-name="Forma 1 копия" class="cls-2" d="M73,28.875c6.514,0,11.813-6.478,11.813-14.437S79.512,0,73,0a10.791,10.791,0,0,0-8.45,4.338,16.161,16.161,0,0,0-3.363,10.1C61.187,22.4,66.486,28.875,73,28.875ZM73,2.626c5.065,0,9.188,5.3,9.188,11.812S78.065,26.251,73,26.251s-9.188-5.3-9.189-11.812S67.934,2.626,73,2.626ZM82.188,26.25a1.313,1.313,0,0,0,0,2.625,9.2,9.2,0,0,1,9.188,9.187,1.315,1.315,0,0,1-1.312,1.313H55.938a1.315,1.315,0,0,1-1.312-1.313,9.2,9.2,0,0,1,9.187-9.187,1.313,1.313,0,0,0,0-2.625A11.825,11.825,0,0,0,52,38.062,3.942,3.942,0,0,0,55.938,42H90.063A3.942,3.942,0,0,0,94,38.062,11.826,11.826,0,0,0,82.188,26.25Z"/>
  <path id="Forma_1_копия-2" data-name="Forma 1 копия" class="cls-2" d="M73.5,48A20.5,20.5,0,1,0,94,68.5,20.523,20.523,0,0,0,73.5,48Zm0,38.312A17.811,17.811,0,1,1,91.311,68.5,17.831,17.831,0,0,1,73.5,86.311Zm7.422-24.523L70.351,72.359l-4.273-4.272a1.344,1.344,0,0,0-1.9,1.9L69.4,75.211a1.345,1.345,0,0,0,1.9,0l0,0L82.822,63.69A1.344,1.344,0,1,0,80.922,61.789Z"/>
  <path id="Forma_1_копия-3" data-name="Forma 1 копия" class="cls-2" d="M90.018,94h-14.1a1.016,1.016,0,0,0-.72.308L54.308,115.12a0.992,0.992,0,0,0,0,1.439l14.1,14.132a1,1,0,0,0,1.441,0l20.84-20.812a1.016,1.016,0,0,0,.309-0.72V95.028A0.958,0.958,0,0,0,90.018,94Zm-1.029,14.7L69.178,128.532l-12.71-12.641L76.331,96.056H88.989V108.7Zm-7.2-9.61A4.111,4.111,0,1,0,85.9,103.2,4.126,4.126,0,0,0,81.785,99.087Zm1.441,5.6a2.151,2.151,0,0,1-2.933,0A2.073,2.073,0,1,1,83.226,104.689Z"/>
  <path id="Forma_1_копия-4" data-name="Forma 1 копия" class="cls-2" d="M92.77,143.433a1.313,1.313,0,0,0-1.023-.568l-25.439-1.108a1.33,1.33,0,0,0-.113,2.657l23.717,1.033-4.663,14.7H64.5l-3.749-20.631a1.326,1.326,0,0,0-.813-1l-6.141-2.438a1.312,1.312,0,0,0-1.706.751,1.336,1.336,0,0,0,.743,1.725l5.46,2.168,3.815,20.993a1.32,1.32,0,0,0,1.294,1.09h0.633l-1.445,4.057a1.117,1.117,0,0,0,.135,1.013,1.094,1.094,0,0,0,.9.471h1.014a3.948,3.948,0,1,0,5.868,0h8.606a3.947,3.947,0,1,0,5.868,0h1.233a1.109,1.109,0,0,0,0-2.217H65.18l1.184-3.324H86.208a1.316,1.316,0,0,0,1.252-.924L92.943,144.6A1.338,1.338,0,0,0,92.77,143.433Zm-25.2,29.353a1.773,1.773,0,1,1,1.754-1.773A1.765,1.765,0,0,1,67.567,172.786Zm14.474,0a1.773,1.773,0,1,1,1.755-1.773A1.765,1.765,0,0,1,82.041,172.786Z"/>
  <path id="Forma_1_копия-5" data-name="Forma 1 копия" class="cls-2" d="M93.9,287.206a1.168,1.168,0,0,0-1.191-.865H78.432l-4.673-13.477A1.184,1.184,0,0,0,72.519,272a1.211,1.211,0,0,0-1.262.864l-4.674,13.477H52.306a1.192,1.192,0,0,0-1.239.865,1.265,1.265,0,0,0,.421,1.448L62.939,297.6l-4.16,13.71a1.239,1.239,0,0,0,.468,1.448,1.348,1.348,0,0,0,1.542,0l11.731-8.174,11.708,8.174a1.307,1.307,0,0,0,.771.234,1.266,1.266,0,0,0,1.285-1.284,1.821,1.821,0,0,0-.093-0.538L82.077,297.6l11.45-8.945A1.181,1.181,0,0,0,93.9,287.206Zm-13.658,8.737a1.419,1.419,0,0,0-.471,1.455L83.3,309.015l-10.032-6.906a1.249,1.249,0,0,0-1.514,0l-10.032,6.906L65.245,297.4a1.418,1.418,0,0,0-.472-1.455l-9.759-7.572H67.232a1.239,1.239,0,0,0,1.267-.913l4.022-11.469,4,11.469a1.246,1.246,0,0,0,1.291.913H90Z"/>
  <path id="Forma_1_копия-6" data-name="Forma 1 копия" class="cls-2" d="M70.154,393.192a1.4,1.4,0,0,1,0,1.969,1.362,1.362,0,0,1-1.944,0l-9.485-9.609a1.621,1.621,0,0,1,0-2.108l9.485-9.608a1.362,1.362,0,0,1,1.944,0,1.4,1.4,0,0,1,0,1.969l-7.208,7.3H92.623a1.393,1.393,0,0,1,0,2.785H62.946ZM55.5,365H83a5.536,5.536,0,0,1,5.5,5.57v5.571h-2.75v-5.571A2.768,2.768,0,0,0,83,367.788H55.5a2.768,2.768,0,0,0-2.749,2.785v27.852a2.768,2.768,0,0,0,2.749,2.786H83a2.767,2.767,0,0,0,2.75-2.786v-5.57H88.5v5.57A5.536,5.536,0,0,1,83,404H55.5a5.536,5.536,0,0,1-5.5-5.571V370.573A5.536,5.536,0,0,1,55.5,365Z"/>
  <path id="Forma_1_копия-7" data-name="Forma 1 копия" class="cls-2" d="M91.364,192.515a20.5,20.5,0,0,0-37.75,0,20.5,20.5,0,0,0,0,15.947,20.2,20.2,0,0,0,10.895,10.9A19.934,19.934,0,0,0,72.466,221,20.466,20.466,0,0,0,91.364,192.515Zm-3.273,17.024a18,18,0,0,1-6.591,6.572,17.65,17.65,0,0,1-9.034,2.422,17.345,17.345,0,0,1-6.994-1.436,17.62,17.62,0,0,1-9.572-9.6,18.15,18.15,0,0,1,.987-16.037,18,18,0,0,1,6.568-6.571,18.009,18.009,0,0,1,18.045,0,18.038,18.038,0,0,1,6.591,6.571A18.087,18.087,0,0,1,88.091,209.539ZM73.767,200.3V188.68a1.293,1.293,0,0,0-1.3-1.256,1.264,1.264,0,0,0-1.233,1.256v11.8a1.047,1.047,0,0,1,.045.18,1.174,1.174,0,0,0,.336,1.01l6.7,6.706a1.276,1.276,0,0,0,1.726,0,1.211,1.211,0,0,0,0-1.75Z"/>
  <path id="Forma_1_копия-8" data-name="Forma 1 копия" class="cls-2" d="M74.854,360H70.331c-0.68,0-.918,0-3.236-5.722l-1.791-.725c-4.879,2.206-5.457,2.206-5.65,2.206H59.281l-0.318-.273-3.206-3.125c-0.487-.484-0.656-0.653,1.852-6.3l-0.73-1.722c-5.89-2.1-5.89-2.346-5.89-3.039v-4.417c0-.692,0-0.911,5.871-3.173l0.73-1.725c-2.653-5.562-2.471-5.735-1.947-6.226l3.447-3.367,0.428-.014c0.521,0,2.452.7,5.744,2.088l1.786-.723C69.2,318,69.461,318,70.139,318h4.522c0.678,0,.915,0,3.235,5.725l1.793,0.72c4.872-2.2,5.457-2.2,5.652-2.2h0.37l0.319,0.268,3.205,3.12c0.487,0.49.654,0.658-1.854,6.309l0.732,1.73c5.9,2.094,5.9,2.338,5.9,3.032v4.412c0,0.676,0,.913-5.878,3.177l-0.725,1.726c2.639,5.538,2.465,5.712,1.972,6.208l-3.474,3.389-0.431.012c-0.518,0-2.444-.7-5.733-2.09l-1.8.723C75.79,360,75.546,360,74.854,360ZM70.8,358.177h3.567c0.41-.831,1.295-3.035,2-4.933l0.143-.378,3.248-1.307,0.349,0.148c1.936,0.823,4.224,1.733,5.115,2.014l2.507-2.443c-0.318-.879-1.284-3.031-2.154-4.845l-0.176-.369,1.344-3.2,0.366-.14c1.955-.75,4.221-1.676,5.067-2.1V337.2c-0.857-.4-3.113-1.256-5.057-1.943l-0.381-.136-1.352-3.2,0.161-.36c0.832-1.871,1.758-4.078,2.054-4.967l-2.513-2.448c-0.811.282-3.082,1.252-5,2.123l-0.357.163-3.247-1.3-0.145-.36c-0.768-1.909-1.722-4.122-2.152-4.942H70.627c-0.412.829-1.293,3.034-2,4.931l-0.141.376-3.239,1.311-0.349-.149c-1.94-.821-4.232-1.73-5.127-2.01l-2.5,2.444c0.314,0.877,1.282,3.027,2.15,4.842l0.178,0.37-1.35,3.194-0.363.14c-1.952.749-4.214,1.674-5.06,2.1v3.436c0.856,0.4,3.11,1.26,5.053,1.95l0.378,0.136,1.352,3.189-0.161.36c-0.833,1.869-1.757,4.073-2.054,4.961l2.518,2.455c0.809-.284,3.077-1.255,5-2.126l0.359-.163,3.241,1.312,0.145,0.36C69.42,355.148,70.371,357.357,70.8,358.177Zm1.7-11.826A7.351,7.351,0,1,1,80.013,339,7.449,7.449,0,0,1,72.5,346.351Zm0-12.873A5.526,5.526,0,1,0,78.182,339,5.614,5.614,0,0,0,72.5,333.478Z"/>
  <path id="Forma_1_копия-9" data-name="Forma 1 копия" class="cls-2" d="M87.143,231.417H80.636v-2.645A2.764,2.764,0,0,0,77.888,226H68.112a2.764,2.764,0,0,0-2.749,2.772v2.645H58.857A1.867,1.867,0,0,0,57,233.29v3.433a1.868,1.868,0,0,0,1.857,1.874h1.079v25.78a2.614,2.614,0,0,0,2.6,2.623H83.464a2.614,2.614,0,0,0,2.6-2.623V238.6h1.079A1.867,1.867,0,0,0,89,236.724V233.29A1.867,1.867,0,0,0,87.143,231.417Zm-19.551-2.645a0.529,0.529,0,0,1,.52-0.524h9.775a0.529,0.529,0,0,1,.52.524v2.645H67.592v-2.645Zm16.243,35.605a0.378,0.378,0,0,1-.371.375H62.536a0.378,0.378,0,0,1-.371-0.375V238.6H83.836v25.78Zm2.936-28.028H59.229v-2.684H86.771v2.684h0ZM66.478,261.574a1.119,1.119,0,0,0,1.114-1.124V243.305a1.114,1.114,0,1,0-2.229,0V260.45A1.119,1.119,0,0,0,66.478,261.574Zm6.522,0a1.119,1.119,0,0,0,1.114-1.124V243.305a1.114,1.114,0,1,0-2.228,0V260.45A1.119,1.119,0,0,0,73,261.574Zm6.522,0a1.119,1.119,0,0,0,1.114-1.124V243.305a1.114,1.114,0,1,0-2.229,0V260.45A1.119,1.119,0,0,0,79.522,261.574Z"/>
</svg>
