<svg xmlns="http://www.w3.org/2000/svg" xmlns:xlink="http://www.w3.org/1999/xlink" width="50" height="54" viewBox="0 0 50 54">
  <metadata><?xpacket begin="﻿" id="W5M0MpCehiHzreSzNTczkc9d"?>
<x:xmpmeta xmlns:x="adobe:ns:meta/" x:xmptk="Adobe XMP Core 5.6-c138 79.159824, 2016/09/14-01:09:01        ">
   <rdf:RDF xmlns:rdf="http://www.w3.org/1999/02/22-rdf-syntax-ns#">
      <rdf:Description rdf:about=""/>
   </rdf:RDF>
</x:xmpmeta>
                                                                                                    
                                                                                                    
                                                                                                    
                                                                                                    
                                                                                                    
                                                                                                    
                                                                                                    
                                                                                                    
                                                                                                    
                                                                                                    
                                                                                                    
                                                                                                    
                                                                                                    
                                                                                                    
                                                                                                    
                                                                                                    
                                                                                                    
                                                                                                    
                                                                                                    
                                                                                                    
                           
<?xpacket end="w"?></metadata>
<defs>
    <style>
      .cls-1 {
        fill: none;
        fill-opacity: 0;
        stroke: #fff;
        stroke-linejoin: round;
        stroke-width: 4;
        fill-rule: evenodd;
      }
    </style>
  </defs>
  <g>
    <path id="path" class="cls-1" d="M34.407,50.038A36.91,36.91,0,0,1,9.219,4.455a2.032,2.032,0,0,1,2.659-1.494l7.246,2.078A2.053,2.053,0,0,1,20.606,7.72a24.774,24.774,0,0,0-.877,7.872,2.681,2.681,0,0,1-1,1.969l-6.057,3.228a33.867,33.867,0,0,0,9.779,17.7L28.3,35.2a1.7,1.7,0,0,1,2.188.176,22.432,22.432,0,0,0,7.1,3.39,2.053,2.053,0,0,1,1.482,2.681l-2,7.1A2.032,2.032,0,0,1,34.407,50.038Z" />
  </g>
</svg>
