<svg xmlns="http://www.w3.org/2000/svg" width="42" height="42" viewBox="0 0 42 42">
  <metadata><?xpacket begin="﻿" id="W5M0MpCehiHzreSzNTczkc9d"?>
<x:xmpmeta xmlns:x="adobe:ns:meta/" x:xmptk="Adobe XMP Core 5.6-c138 79.159824, 2016/09/14-01:09:01        ">
   <rdf:RDF xmlns:rdf="http://www.w3.org/1999/02/22-rdf-syntax-ns#">
      <rdf:Description rdf:about=""/>
   </rdf:RDF>
</x:xmpmeta>
                                                                                                    
                                                                                                    
                                                                                                    
                                                                                                    
                                                                                                    
                                                                                                    
                                                                                                    
                                                                                                    
                                                                                                    
                                                                                                    
                                                                                                    
                                                                                                    
                                                                                                    
                                                                                                    
                                                                                                    
                                                                                                    
                                                                                                    
                                                                                                    
                                                                                                    
                                                                                                    
                           
<?xpacket end="w"?></metadata>
<defs>
    <style>
      .cls-1 {
        fill: #18c33a;
        fill-rule: evenodd;
      }
    </style>
  </defs>
  <path id="Forma_1" data-name="Forma 1" class="cls-1" d="M21,28.875c6.514,0,11.813-6.478,11.813-14.437S27.512,0,21,0a10.791,10.791,0,0,0-8.45,4.338,16.161,16.161,0,0,0-3.363,10.1C9.187,22.4,14.486,28.875,21,28.875ZM21,2.626c5.065,0,9.188,5.3,9.188,11.812S26.065,26.251,21,26.251s-9.188-5.3-9.189-11.812S15.934,2.626,21,2.626ZM30.188,26.25a1.313,1.313,0,0,0,0,2.625,9.2,9.2,0,0,1,9.188,9.187,1.315,1.315,0,0,1-1.312,1.313H3.938a1.315,1.315,0,0,1-1.312-1.313,9.2,9.2,0,0,1,9.187-9.187,1.313,1.313,0,0,0,0-2.625A11.825,11.825,0,0,0,0,38.062,3.942,3.942,0,0,0,3.938,42H38.063A3.942,3.942,0,0,0,42,38.062,11.826,11.826,0,0,0,30.188,26.25Z"/>
</svg>
