<svg xmlns="http://www.w3.org/2000/svg" width="42" height="42" viewBox="0 0 42 42">
  <metadata><?xpacket begin="﻿" id="W5M0MpCehiHzreSzNTczkc9d"?>
<x:xmpmeta xmlns:x="adobe:ns:meta/" x:xmptk="Adobe XMP Core 5.6-c138 79.159824, 2016/09/14-01:09:01        ">
   <rdf:RDF xmlns:rdf="http://www.w3.org/1999/02/22-rdf-syntax-ns#">
      <rdf:Description rdf:about=""/>
   </rdf:RDF>
</x:xmpmeta>
                                                                                                    
                                                                                                    
                                                                                                    
                                                                                                    
                                                                                                    
                                                                                                    
                                                                                                    
                                                                                                    
                                                                                                    
                                                                                                    
                                                                                                    
                                                                                                    
                                                                                                    
                                                                                                    
                                                                                                    
                                                                                                    
                                                                                                    
                                                                                                    
                                                                                                    
                                                                                                    
                           
<?xpacket end="w"?></metadata>
<defs>
    <style>
      .cls-1 {
        fill: #18c33a;
        fill-rule: evenodd;
      }
    </style>
  </defs>
  <path id="Forma_1" data-name="Forma 1" class="cls-1" d="M35.143,6.417H28.636V3.772A2.764,2.764,0,0,0,25.888,1H16.112a2.764,2.764,0,0,0-2.749,2.772V6.417H6.857A1.867,1.867,0,0,0,5,8.29v3.433A1.867,1.867,0,0,0,6.857,13.6H7.936V39.377A2.614,2.614,0,0,0,10.536,42H31.464a2.614,2.614,0,0,0,2.6-2.622V13.6h1.079A1.867,1.867,0,0,0,37,11.724V8.29A1.867,1.867,0,0,0,35.143,6.417ZM15.592,3.772a0.529,0.529,0,0,1,.52-0.524h9.775a0.529,0.529,0,0,1,.52.524V6.417H15.592V3.772ZM31.836,39.378a0.378,0.378,0,0,1-.372.375H10.536a0.378,0.378,0,0,1-.371-0.375V13.6H31.836V39.378Zm2.936-28.029H7.229V8.665H34.771v2.684h0ZM14.478,36.574a1.119,1.119,0,0,0,1.114-1.124V18.3a1.114,1.114,0,1,0-2.229,0V35.45A1.119,1.119,0,0,0,14.478,36.574Zm6.522,0a1.119,1.119,0,0,0,1.114-1.124V18.3a1.114,1.114,0,1,0-2.229,0V35.45A1.119,1.119,0,0,0,21,36.574Zm6.522,0a1.119,1.119,0,0,0,1.114-1.124V18.3a1.114,1.114,0,1,0-2.229,0V35.45A1.119,1.119,0,0,0,27.522,36.574Z"/>
</svg>
