<svg xmlns="http://www.w3.org/2000/svg" width="274" height="66" viewBox="0 0 274 66">
  <metadata><?xpacket begin="﻿" id="W5M0MpCehiHzreSzNTczkc9d"?>
<x:xmpmeta xmlns:x="adobe:ns:meta/" x:xmptk="Adobe XMP Core 5.6-c138 79.159824, 2016/09/14-01:09:01        ">
   <rdf:RDF xmlns:rdf="http://www.w3.org/1999/02/22-rdf-syntax-ns#">
      <rdf:Description rdf:about=""/>
   </rdf:RDF>
</x:xmpmeta>
                                                                                                    
                                                                                                    
                                                                                                    
                                                                                                    
                                                                                                    
                                                                                                    
                                                                                                    
                                                                                                    
                                                                                                    
                                                                                                    
                                                                                                    
                                                                                                    
                                                                                                    
                                                                                                    
                                                                                                    
                                                                                                    
                                                                                                    
                                                                                                    
                                                                                                    
                                                                                                    
                           
<?xpacket end="w"?></metadata>
<defs>
    <style>
      .cls-1 {
        fill: #fff;
        fill-rule: evenodd;
      }
    </style>
  </defs>
  <path id="Фигура_1" data-name="Фигура 1" class="cls-1" d="M2.877,0L39.645,18.673l-19.183,7.4L5.435,41.532ZM56.59,66L0,55.054,1.279,32.2,3.2,47.649l31.972,0.966,11.19-29.3L19.5,3.863l39.965,9.015ZM91.76,17.385c9.419-.759,16.454,2.407,19.183,9.337,5.559,14.117-.786,26.575-12.469,28.654-14.935,2.658-25.051-9.658-21.1-25.756A16.944,16.944,0,0,1,86,19,19.108,19.108,0,0,1,91.76,17.385Zm25.577,0.322h8.952l17.9,22.215V17.707h6.394l0.32,37.346h-3.517l-20.142-24.79v24.79h-6.075V21.893Zm43.482,0.322h7.354V55.376h-7.354V18.029Zm21.741,0h7.354L177.445,36.059l14.067,19H182.88l-13.428-19Zm22.061,0.322V49.581h13.748l-2.558,5.151h-17.9V18.351h6.714Zm27.815,0v36.7h-6.394v-36.7h6.394Zm10.551,0h7.034v36.7h-7.034v-36.7Zm21.421,0H272.4L259.613,36.059,274,55.376h-8.632L251.3,36.059ZM92.719,23.5c-3.537,1.094-5.949,2.932-7.354,6.761-3.1,8.462,1.023,21.271,11.51,19C108.287,46.782,107.972,20.685,92.719,23.5Z"/>
</svg>
